<?xml version="1.0" encoding="UTF-8" standalone="no"?>
<!-- Created with Inkscape (http://www.inkscape.org/) -->

<svg
   width="33.766289mm"
   height="31.616709mm"
   viewBox="0 0 33.766288 31.616709"
   version="1.1"
   id="svg1"
   inkscape:version="1.4.2 (f4327f4, 2025-05-13)"
   sodipodi:docname="icon_align.svg"
   xmlns:inkscape="http://www.inkscape.org/namespaces/inkscape"
   xmlns:sodipodi="http://sodipodi.sourceforge.net/DTD/sodipodi-0.dtd"
   xmlns="http://www.w3.org/2000/svg"
   xmlns:svg="http://www.w3.org/2000/svg">
  <sodipodi:namedview
     id="namedview1"
     pagecolor="#ffffff"
     bordercolor="#000000"
     borderopacity="0.25"
     inkscape:showpageshadow="2"
     inkscape:pageopacity="0.0"
     inkscape:pagecheckerboard="0"
     inkscape:deskcolor="#d1d1d1"
     inkscape:document-units="mm"
     showguides="true"
     inkscape:zoom="5.9081368"
     inkscape:cx="76.335402"
     inkscape:cy="54.416479"
     inkscape:window-width="1920"
     inkscape:window-height="1009"
     inkscape:window-x="-8"
     inkscape:window-y="-8"
     inkscape:window-maximized="1"
     inkscape:current-layer="layer1" />
  <defs
     id="defs1" />
  <g
     inkscape:label="Calque 1"
     inkscape:groupmode="layer"
     id="layer1"
     transform="translate(4.0541167,-18.05142)">
    <rect
       style="fill:none;stroke:none;stroke-width:3.59899"
       id="rect5"
       width="33.766289"
       height="31.616709"
       x="-4.0541167"
       y="18.05142"
       rx="0" />
    <path
       d="m 15.645456,33.459782 c -0.943158,-0.707106 -2.13843,-1.298421 -3.7021,-1.67225 l -8.6072261,12.60905 1.6515788,1.128096 1.651062,1.12758 z"
       style="baseline-shift:baseline;display:inline;overflow:visible;vector-effect:none;enable-background:accumulate;stop-color:#000000;stop-opacity:1;fill:#000000"
       id="path18" />
    <path
       d="m 14.827935,27.561951 c 1.354704,0.501583 2.542803,1.136476 3.574459,1.858284 l 2.753837,-4.033345 -1.652613,-1.127063 -1.652095,-1.127063 z"
       style="baseline-shift:baseline;display:inline;overflow:visible;vector-effect:none;enable-background:accumulate;stop-color:#000000;stop-opacity:1;fill:#000000"
       id="path17" />
    <g
       id="path2"
       style="opacity:1;stroke-width:0.8;stroke-dasharray:none;stroke:#000000;fill:#000000">
      <g
         id="path6"
         style="opacity:1;fill:#000000">
        <path
           style="baseline-shift:baseline;display:inline;overflow:visible;vector-effect:none;stroke:none;enable-background:accumulate;stop-color:#000000;stop-opacity:1;fill:#000000"
           d="m 6.3007812,27.898437 0.1035157,1.996094 c 7.4708031,-0.388654 10.9582051,2.416253 12.7988281,5.285156 1.840623,2.868904 1.912109,5.828126 1.912109,5.828125 l 2,-0.04102 c 0,0 -0.06107,-3.48888 -2.228515,-6.867188 C 18.719274,30.721302 14.324852,27.481 6.3007812,27.898437 Z"
           id="path19" />
        <path
           style="baseline-shift:baseline;display:inline;overflow:visible;vector-effect:none;stroke:none;enable-background:accumulate;stop-color:#000000;stop-opacity:1;fill:#000000"
           d="m 6.2792969,27.498047 -0.3984375,0.02148 0.1445312,2.794922 0.4003906,-0.01953 c 7.3646388,-0.383131 10.6607978,2.326201 12.4414058,5.101562 1.775658,2.767645 1.847657,5.621094 1.847657,5.621094 l 0.0098,0.398438 2.796875,-0.05664 -0.0059,-0.400391 c 0,0 -0.05978,-3.59539 -2.292969,-7.076172 -2.237363,-3.48728 -6.804471,-6.808175 -14.9433591,-6.384765 z m 0.4453125,0.824219 c 7.6204316,-0.270958 11.7687276,2.787292 13.8261716,5.99414 1.902419,2.965222 2.080445,5.707553 2.107422,6.259766 l -1.199219,0.02344 C 21.428577,40.056127 21.245137,37.622079 19.539062,34.962891 17.676948,32.06049 14.056536,29.258979 6.7871094,29.515625 Z"
           id="path20" />
      </g>
      <g
         id="g2"
         style="stroke-width:0.8;stroke-dasharray:none;stroke:#000000;fill:#000000">
        <g
           id="path3"
           style="opacity:1;stroke-width:0.8;stroke-dasharray:none;stroke:#000000;fill:#000000">
          <g
             id="path4"
             style="opacity:1;fill:#000000">
            <path
               style="baseline-shift:baseline;display:inline;overflow:visible;vector-effect:none;fill-rule:evenodd;stroke:none;enable-background:accumulate;stop-color:#000000;stop-opacity:1;fill:#000000"
               d="m 3.4711854,29.046443 4.189277,-2.72132 0.2597644,4.993248 z"
               id="path21" />
            <path
               style="baseline-shift:baseline;display:inline;overflow:visible;vector-effect:none;fill-rule:evenodd;stroke:none;enable-background:accumulate;stop-color:#000000;stop-opacity:1;fill:#000000"
               d="m 8.0234375,25.611328 -5.3496094,3.476563 5.6816407,2.902343 z M 7.296875,27.037109 7.4863281,30.648437 4.2695312,29.005859 Z"
               id="path22" />
          </g>
          <g
             id="path5"
             style="opacity:1;fill:#000000">
            <path
               style="baseline-shift:baseline;display:inline;overflow:visible;vector-effect:none;fill-rule:evenodd;stroke:none;enable-background:accumulate;stop-color:#000000;stop-opacity:1;fill:#000000"
               d="m 7.9628906,25.730469 -5.15625,3.349609 5.4765625,2.798828 z m -0.6054687,1.189453 0.2011718,3.839844 -3.421875,-1.748047 z"
               id="path23" />
            <path
               style="baseline-shift:baseline;display:inline;overflow:visible;vector-effect:none;fill-rule:evenodd;stroke:none;enable-background:accumulate;stop-color:#000000;stop-opacity:1;fill:#000000"
               d="M 8.3261719,25.017578 2.0078125,29.121094 8.71875,32.550781 Z m -1.3320313,2.617188 0.1269531,2.453125 -2.1855468,-1.117188 z"
               id="path24" />
          </g>
        </g>
      </g>
    </g>
  </g>
</svg>
